<?xml version="1.0" encoding="UTF-8" standalone="no"?>
<!-- Created with Inkscape (http://www.inkscape.org/) -->

<svg
   xmlns:dc="http://purl.org/dc/elements/1.1/"
   xmlns:cc="http://creativecommons.org/ns#"
   xmlns:rdf="http://www.w3.org/1999/02/22-rdf-syntax-ns#"
   xmlns:svg="http://www.w3.org/2000/svg"
   xmlns="http://www.w3.org/2000/svg"
   xmlns:sodipodi="http://sodipodi.sourceforge.net/DTD/sodipodi-0.dtd"
   xmlns:inkscape="http://www.inkscape.org/namespaces/inkscape"
   width="60"
   height="380"
   viewBox="0 0 15.875001 100.54167"
   version="1.1"
   id="svg8"
   inkscape:version="0.92.2 5c3e80d, 2017-08-06"
   sodipodi:docname="Circular.svg"
   inkscape:export-filename="/Users/francesco/Documents/VCVRack/Rack/plugins/UModules/res/Compare.png"
   inkscape:export-xdpi="96"
   inkscape:export-ydpi="96">
  <defs
     id="defs2" />
  <sodipodi:namedview
     id="base"
     pagecolor="#ffffff"
     bordercolor="#666666"
     borderopacity="1.0"
     inkscape:pageopacity="0.0"
     inkscape:pageshadow="2"
     inkscape:zoom="2.8"
     inkscape:cx="95.955432"
     inkscape:cy="294.89623"
     inkscape:document-units="mm"
     inkscape:current-layer="layer2"
     showgrid="false"
     units="px"
     inkscape:snap-bbox="true"
     inkscape:snap-page="true"
     inkscape:bbox-nodes="true"
     inkscape:snap-bbox-edge-midpoints="true"
     inkscape:window-width="1280"
     inkscape:window-height="778"
     inkscape:window-x="0"
     inkscape:window-y="0"
     inkscape:window-maximized="1" />
  <metadata
     id="metadata5">
    <rdf:RDF>
      <cc:Work
         rdf:about="">
        <dc:format>image/svg+xml</dc:format>
        <dc:type
           rdf:resource="http://purl.org/dc/dcmitype/StillImage" />
        <dc:title />
      </cc:Work>
    </rdf:RDF>
  </metadata>
  <g
     inkscape:label="Layer 1"
     inkscape:groupmode="layer"
     id="layer1"
     transform="translate(0,-196.45832)">
    <path
       style="opacity:1;vector-effect:none;fill:#4d4d4d;fill-opacity:1;fill-rule:evenodd;stroke:none;stroke-width:1.01183677;stroke-linecap:butt;stroke-linejoin:round;stroke-miterlimit:4;stroke-dasharray:none;stroke-dashoffset:0;stroke-opacity:1;paint-order:normal"
       d="M 0,196.45832 H 103.1875 V 297 H 0 Z"
       id="rect817"
       inkscape:connector-curvature="0" />
  </g>
  <g
     inkscape:groupmode="layer"
     id="layer2"
     inkscape:label="Objects">
    <g
       aria-label="Circular"
       style="font-style:normal;font-weight:normal;font-size:10.58333302px;line-height:1.25;font-family:sans-serif;letter-spacing:0px;word-spacing:0px;fill:#000000;fill-opacity:1;stroke:none;stroke-width:0.26458332"
       id="text825"
       transform="translate(-4.930793,-4.2522321)">
      <path
         d="m 11.245653,9.0889624 v 0.3669027 q -0.1757,-0.1636421 -0.375515,-0.2446018 -0.198093,-0.08096 -0.422024,-0.08096 -0.440973,0 -0.6752391,0.2704399 -0.2342665,0.2687175 -0.2342665,0.7785918 0,0.508152 0.2342665,0.778592 0.2342661,0.268717 0.6752391,0.268717 0.223931,0 0.422024,-0.08096 0.199815,-0.08096 0.375515,-0.244601 v 0.363457 q -0.18259,0.124024 -0.387573,0.186035 -0.203261,0.06201 -0.430637,0.06201 -0.5839436,0 -0.9198404,-0.356567 -0.3358968,-0.35829 -0.3358968,-0.976685 0,-0.6201174 0.3358968,-0.9766847 0.3358968,-0.35829 0.9198404,-0.35829 0.230821,0 0.434082,0.062012 0.204983,0.060289 0.384128,0.18259 z"
         style="font-size:3.52777767px;fill:#ffffff;stroke-width:0.26458332"
         id="path827"
         inkscape:connector-curvature="0" />
      <path
         d="m 11.772753,9.5333797 h 0.316949 v 1.9292533 h -0.316949 z m 0,-0.7510308 h 0.316949 v 0.4013536 h -0.316949 z"
         style="font-size:3.52777767px;fill:#ffffff;stroke-width:0.26458332"
         id="path829"
         inkscape:connector-curvature="0" />
      <path
         d="m 13.869093,9.8296579 q -0.0534,-0.031006 -0.117133,-0.044786 -0.06201,-0.015503 -0.137804,-0.015503 -0.268717,0 -0.413411,0.1756998 -0.142971,0.1739773 -0.142971,0.5012613 v 1.016303 H 12.739102 V 9.5333797 h 0.318672 V 9.833103 q 0.09991,-0.1756998 0.260104,-0.2601047 0.160197,-0.086127 0.389296,-0.086127 0.03273,0 0.07235,0.00517 0.03962,0.00345 0.08785,0.012058 z"
         style="font-size:3.52777767px;fill:#ffffff;stroke-width:0.26458332"
         id="path831"
         inkscape:connector-curvature="0" />
      <path
         d="m 15.521017,9.6074493 v 0.2962782 q -0.134359,-0.07407 -0.27044,-0.1102431 -0.134359,-0.037896 -0.272163,-0.037896 -0.308336,0 -0.478868,0.1963704 -0.170532,0.1946482 -0.170532,0.5477702 0,0.353122 0.170532,0.549493 0.170532,0.194648 0.478868,0.194648 0.137804,0 0.272163,-0.03617 0.136081,-0.0379 0.27044,-0.111966 v 0.292834 q -0.132637,0.06201 -0.275608,0.09302 -0.141249,0.03101 -0.301446,0.03101 -0.435804,0 -0.692464,-0.273885 -0.25666,-0.273885 -0.25666,-0.738973 0,-0.471978 0.258382,-0.7424181 0.260105,-0.27044 0.711413,-0.27044 0.146416,0 0.285943,0.031006 0.139526,0.029283 0.27044,0.089573 z"
         style="font-size:3.52777767px;fill:#ffffff;stroke-width:0.26458332"
         id="path833"
         inkscape:connector-curvature="0" />
      <path
         d="M 16.046394,10.701267 V 9.5333797 h 0.316948 v 1.1558293 q 0,0.273885 0.106798,0.411689 0.106798,0.136081 0.320394,0.136081 0.25666,0 0.404799,-0.163642 0.149862,-0.163642 0.149862,-0.446139 V 9.5333797 h 0.316948 v 1.9292533 h -0.316948 v -0.296278 q -0.115411,0.1757 -0.268718,0.261827 -0.151584,0.08441 -0.353122,0.08441 -0.332452,0 -0.504707,-0.206706 -0.172254,-0.206705 -0.172254,-0.604614 z"
         style="font-size:3.52777767px;fill:#ffffff;stroke-width:0.26458332"
         id="path835"
         inkscape:connector-curvature="0" />
      <path
         d="m 18.318434,8.7823489 h 0.316948 v 2.6802841 h -0.316948 z"
         style="font-size:3.52777767px;fill:#ffffff;stroke-width:0.26458332"
         id="path837"
         inkscape:connector-curvature="0" />
      <path
         d="m 20.173618,10.492839 q -0.384128,0 -0.532267,0.08785 -0.148139,0.08785 -0.148139,0.299723 0,0.16881 0.110243,0.268717 0.111966,0.09819 0.303168,0.09819 0.26355,0 0.422025,-0.186035 0.160197,-0.187758 0.160197,-0.497817 v -0.07062 z m 0.632175,-0.130914 v 1.100708 H 20.488845 V 11.1698 q -0.108521,0.1757 -0.27044,0.260105 -0.16192,0.08268 -0.396186,0.08268 -0.296279,0 -0.471979,-0.165365 -0.173977,-0.167087 -0.173977,-0.446139 0,-0.325562 0.217041,-0.490927 0.218764,-0.165364 0.651123,-0.165364 h 0.444418 v -0.03101 q 0,-0.2187635 -0.144694,-0.3376193 -0.142972,-0.1205783 -0.403077,-0.1205783 -0.165364,0 -0.322116,0.039619 -0.156752,0.039619 -0.301446,0.1188558 V 9.6212297 q 0.173977,-0.067179 0.337619,-0.099908 0.163642,-0.034451 0.318672,-0.034451 0.418579,0 0.625285,0.217041 0.206705,0.217041 0.206705,0.6580133 z"
         style="font-size:3.52777767px;fill:#ffffff;stroke-width:0.26458332"
         id="path839"
         inkscape:connector-curvature="0" />
      <path
         d="m 22.578295,9.8296579 q -0.0534,-0.031006 -0.117133,-0.044786 -0.06201,-0.015503 -0.137804,-0.015503 -0.268718,0 -0.413412,0.1756998 -0.142971,0.1739773 -0.142971,0.5012613 v 1.016303 H 21.448304 V 9.5333797 h 0.318671 V 9.833103 q 0.09991,-0.1756998 0.260105,-0.2601047 0.160196,-0.086127 0.389295,-0.086127 0.03273,0 0.07235,0.00517 0.03962,0.00345 0.08785,0.012058 z"
         style="font-size:3.52777767px;fill:#ffffff;stroke-width:0.26458332"
         id="path841"
         inkscape:connector-curvature="0" />
    </g>
  </g>
</svg>
