<?xml version="1.0" encoding="UTF-8" standalone="no"?>
<!-- Created with Inkscape (http://www.inkscape.org/) -->

<svg
   xmlns:dc="http://purl.org/dc/elements/1.1/"
   xmlns:cc="http://creativecommons.org/ns#"
   xmlns:rdf="http://www.w3.org/1999/02/22-rdf-syntax-ns#"
   xmlns:svg="http://www.w3.org/2000/svg"
   xmlns="http://www.w3.org/2000/svg"
   xmlns:sodipodi="http://sodipodi.sourceforge.net/DTD/sodipodi-0.dtd"
   xmlns:inkscape="http://www.inkscape.org/namespaces/inkscape"
   width="60"
   height="380"
   viewBox="0 0 15.875001 100.54167"
   version="1.1"
   id="svg8"
   inkscape:version="0.92.2 5c3e80d, 2017-08-06"
   sodipodi:docname="Compare.svg"
   inkscape:export-filename="/Users/francesco/Documents/VCVRack/Rack/plugins/UModules/res/Compare.png"
   inkscape:export-xdpi="96"
   inkscape:export-ydpi="96">
  <defs
     id="defs2" />
  <sodipodi:namedview
     id="base"
     pagecolor="#ffffff"
     bordercolor="#666666"
     borderopacity="1.0"
     inkscape:pageopacity="0.0"
     inkscape:pageshadow="2"
     inkscape:zoom="1.4"
     inkscape:cx="20.551765"
     inkscape:cy="237.30066"
     inkscape:document-units="mm"
     inkscape:current-layer="layer1"
     showgrid="false"
     units="px"
     inkscape:snap-bbox="true"
     inkscape:snap-page="true"
     inkscape:bbox-nodes="true"
     inkscape:snap-bbox-edge-midpoints="true"
     inkscape:window-width="1280"
     inkscape:window-height="778"
     inkscape:window-x="0"
     inkscape:window-y="0"
     inkscape:window-maximized="1" />
  <metadata
     id="metadata5">
    <rdf:RDF>
      <cc:Work
         rdf:about="">
        <dc:format>image/svg+xml</dc:format>
        <dc:type
           rdf:resource="http://purl.org/dc/dcmitype/StillImage" />
        <dc:title></dc:title>
      </cc:Work>
    </rdf:RDF>
  </metadata>
  <g
     inkscape:label="Layer 1"
     inkscape:groupmode="layer"
     id="layer1"
     transform="translate(0,-196.45832)">
    <path
       style="opacity:1;vector-effect:none;fill:#4d4d4d;fill-opacity:1;fill-rule:evenodd;stroke:none;stroke-width:0.39687505;stroke-linecap:butt;stroke-linejoin:round;stroke-miterlimit:4;stroke-dasharray:none;stroke-dashoffset:0;stroke-opacity:1;paint-order:normal"
       d="M 0,196.60952 H 15.875 V 297.1512 H 0 Z"
       id="rect817"
       inkscape:connector-curvature="0" />
    <g
       id="g4170"
       transform="translate(0,2.6458334)">
      <g
         aria-label="Compare"
         style="font-style:normal;font-variant:normal;font-weight:normal;font-stretch:normal;font-size:3.52777767px;line-height:1.25;font-family:Arial;-inkscape-font-specification:Arial;letter-spacing:0px;word-spacing:0px;fill:#dee3db;fill-opacity:1;stroke:none;stroke-width:0.26458332"
         id="text4106">
        <path
           d="m 2.9565809,199.65312 0.3341742,0.0844 q -0.1050754,0.41169 -0.3789605,0.62873 -0.2721625,0.21532 -0.6666259,0.21532 -0.4082438,0 -0.6649034,-0.16537 -0.2549371,-0.16708 -0.3892958,-0.48231 -0.1326362,-0.31523 -0.1326362,-0.67696 0,-0.39447 0.1498617,-0.6873 0.1515842,-0.29455 0.4289143,-0.44614 0.2790528,-0.15331 0.613227,-0.15331 0.3789605,0 0.6373427,0.19293 0.2583821,0.19293 0.3600124,0.5426 l -0.3290066,0.0775 q -0.08785,-0.27561 -0.254937,-0.40136 -0.1670872,-0.12574 -0.4203017,-0.12574 -0.2911105,0 -0.487481,0.13952 -0.1946479,0.13953 -0.2738851,0.37552 -0.079237,0.23427 -0.079237,0.48404 0,0.32211 0.093017,0.56327 0.09474,0.23943 0.2928331,0.35829 0.198093,0.11885 0.4289144,0.11885 0.2807753,0 0.4754232,-0.16192 0.1946479,-0.16192 0.2635498,-0.48059 z"
           style="font-size:3.52777767px;fill:#dee3db;stroke-width:0.26458332"
           id="path4875"
           inkscape:connector-curvature="0" />
        <path
           d="m 3.5491372,199.62384 q 0,-0.50815 0.2824978,-0.75275 0.2359891,-0.20326 0.575331,-0.20326 0.3772379,0 0.616672,0.24804 0.2394342,0.24633 0.2394342,0.68213 0,0.35312 -0.106798,0.55639 -0.1050754,0.20153 -0.308336,0.3135 -0.2015381,0.11196 -0.4409722,0.11196 -0.3841282,0 -0.6218397,-0.24632 -0.2359891,-0.24632 -0.2359891,-0.70969 z m 0.3186713,0 q 0,0.3514 0.1533068,0.5271 0.1533067,0.17398 0.3858507,0.17398 0.2308214,0 0.3841281,-0.1757 0.1533067,-0.1757 0.1533067,-0.53571 0,-0.33935 -0.1550292,-0.51332 -0.1533068,-0.1757 -0.3824056,-0.1757 -0.232544,0 -0.3858507,0.17397 -0.1533068,0.17398 -0.1533068,0.52538 z"
           style="font-size:3.52777767px;fill:#dee3db;stroke-width:0.26458332"
           id="path4877"
           inkscape:connector-curvature="0" />
        <path
           d="m 5.6282523,200.53851 v -1.82934 h 0.2773301 v 0.25666 q 0.086127,-0.13436 0.2290989,-0.21532 0.1429714,-0.0827 0.3255615,-0.0827 0.2032606,0 0.3324517,0.0844 0.1309136,0.0844 0.1843126,0.23599 0.217041,-0.32039 0.5649956,-0.32039 0.2721626,0 0.4185791,0.15158 0.1464166,0.14986 0.1464166,0.46337 v 1.25573 h -0.308336 v -1.15238 q 0,-0.18604 -0.031006,-0.267 -0.029283,-0.0827 -0.1085205,-0.13263 -0.079237,-0.05 -0.1860352,-0.05 -0.1929253,0 -0.3203938,0.12919 -0.1274686,0.12747 -0.1274686,0.40997 v 1.06281 H 6.7151799 v -1.18855 q 0,-0.20671 -0.075792,-0.31006 -0.075792,-0.10336 -0.2480469,-0.10336 -0.1309136,0 -0.2428792,0.0689 -0.1102431,0.0689 -0.160197,0.20153 -0.049954,0.13264 -0.049954,0.38241 v 0.94912 z"
           style="font-size:3.52777767px;fill:#dee3db;stroke-width:0.26458332"
           id="path4879"
           inkscape:connector-curvature="0" />
        <path
           d="m 8.5703638,201.23959 v -2.53042 h 0.2824978 v 0.23771 q 0.099908,-0.13953 0.2256537,-0.20843 0.125746,-0.0706 0.304891,-0.0706 0.2342664,0 0.4134114,0.12057 0.179145,0.12058 0.2704403,0.34107 0.09129,0.21876 0.09129,0.48059 0,0.28078 -0.101631,0.50643 -0.099907,0.22393 -0.2928327,0.34451 -0.1912028,0.11885 -0.4030762,0.11885 -0.1550292,0 -0.2790527,-0.0654 -0.1223009,-0.0655 -0.2015381,-0.16537 v 0.89056 z m 0.2807752,-1.60541 q 0,0.35312 0.1429715,0.52193 0.1429714,0.16881 0.3462321,0.16881 0.2067057,0 0.3531222,-0.17398 0.1481391,-0.1757 0.1481391,-0.5426 0,-0.34968 -0.144694,-0.52366 -0.1429714,-0.17397 -0.3427869,-0.17397 -0.198093,0 -0.3513998,0.18603 -0.1515842,0.18431 -0.1515842,0.53744 z"
           style="font-size:3.52777767px;fill:#dee3db;stroke-width:0.26458332"
           id="path4881"
           inkscape:connector-curvature="0" />
        <path
           d="m 11.727794,200.31286 q -0.172255,0.14642 -0.332452,0.20671 -0.158474,0.0603 -0.341064,0.0603 -0.301446,0 -0.463366,-0.14641 -0.161919,-0.14814 -0.161919,-0.37724 0,-0.13436 0.06029,-0.2446 0.06201,-0.11197 0.160197,-0.17915 0.09991,-0.0672 0.223931,-0.10163 0.0913,-0.0241 0.275608,-0.0465 0.375515,-0.0448 0.552938,-0.10679 0.0017,-0.0637 0.0017,-0.081 0,-0.18948 -0.08785,-0.267 -0.118856,-0.10507 -0.353122,-0.10507 -0.218764,0 -0.323839,0.0775 -0.103353,0.0758 -0.153307,0.27044 l -0.303168,-0.0413 q 0.04134,-0.19465 0.136081,-0.3135 0.09474,-0.12058 0.273885,-0.18432 0.179145,-0.0654 0.415134,-0.0654 0.234267,0 0.380683,0.0551 0.146417,0.0551 0.215319,0.13952 0.0689,0.0827 0.09646,0.21016 0.0155,0.0792 0.0155,0.28594 v 0.41341 q 0,0.43236 0.01895,0.54777 0.02067,0.11369 0.07924,0.21876 h -0.323839 q -0.04823,-0.0965 -0.06201,-0.22565 z m -0.02584,-0.69246 q -0.16881,0.0689 -0.506429,0.11713 -0.191203,0.0276 -0.27044,0.062 -0.07924,0.0344 -0.122301,0.10163 -0.04306,0.0655 -0.04306,0.14642 0,0.12402 0.09302,0.2067 0.09474,0.0827 0.275607,0.0827 0.179145,0 0.318672,-0.0775 0.139526,-0.0792 0.204983,-0.21532 0.04995,-0.10507 0.04995,-0.31006 z"
           style="font-size:3.52777767px;fill:#dee3db;stroke-width:0.26458332"
           id="path4883"
           inkscape:connector-curvature="0" />
        <path
           d="m 12.494327,200.53851 v -1.82934 h 0.279053 v 0.27733 q 0.106798,-0.19465 0.196371,-0.25666 0.09129,-0.062 0.199815,-0.062 0.156752,0 0.318671,0.0999 l -0.106798,0.28767 q -0.113688,-0.0672 -0.227376,-0.0672 -0.10163,0 -0.18259,0.062 -0.08096,0.0603 -0.115411,0.16881 -0.05168,0.16537 -0.05168,0.36174 v 0.95773 z"
           style="font-size:3.52777767px;fill:#dee3db;stroke-width:0.26458332"
           id="path4885"
           inkscape:connector-curvature="0" />
        <path
           d="m 14.928287,199.9494 0.320394,0.0396 q -0.07579,0.28078 -0.280775,0.43581 -0.204983,0.15502 -0.523655,0.15502 -0.401353,0 -0.637342,-0.24632 -0.234267,-0.24805 -0.234267,-0.69419 0,-0.46164 0.237712,-0.71658 0.237711,-0.25493 0.616672,-0.25493 0.366903,0 0.599446,0.24977 0.232544,0.24977 0.232544,0.7028 0,0.0276 -0.0017,0.0827 h -1.364258 q 0.01723,0.30144 0.170532,0.46164 0.153307,0.1602 0.382406,0.1602 0.170532,0 0.29111,-0.0896 0.120579,-0.0896 0.191203,-0.28594 z m -1.018025,-0.50126 h 1.02147 q -0.02067,-0.23082 -0.117133,-0.34623 -0.148139,-0.17915 -0.384128,-0.17915 -0.213596,0 -0.360012,0.14297 -0.144694,0.14298 -0.160197,0.38241 z"
           style="font-size:3.52777767px;fill:#dee3db;stroke-width:0.26458332"
           id="path4887"
           inkscape:connector-curvature="0" />
      </g>
    </g>
    <g
       aria-label="a"
       style="font-style:normal;font-variant:normal;font-weight:normal;font-stretch:normal;font-size:4.93888855px;line-height:1.25;font-family:Arial;-inkscape-font-specification:Arial;letter-spacing:0px;word-spacing:0px;fill:#000000;fill-opacity:1;stroke:none;stroke-width:0.26458332"
       id="text4131"
       transform="translate(0.75462343,-0.48753667)">
      <path
         d="m 4.9122141,207.28885 q -0.1550293,0.13178 -0.2992066,0.18604 -0.1426269,0.0543 -0.306958,0.0543 -0.2713012,0 -0.4170288,-0.13177 -0.1457275,-0.13333 -0.1457275,-0.33952 0,-0.12092 0.05426,-0.22014 0.055811,-0.10077 0.1441773,-0.16123 0.089917,-0.0605 0.2015381,-0.0915 0.082165,-0.0217 0.2480468,-0.0419 0.3379639,-0.0403 0.4976441,-0.0961 0.00155,-0.0574 0.00155,-0.0729 0,-0.17053 -0.079065,-0.24029 -0.1069702,-0.0946 -0.31781,-0.0946 -0.1968872,0 -0.2914551,0.0698 -0.093018,0.0682 -0.1379761,0.2434 l -0.2728515,-0.0372 q 0.037207,-0.17518 0.1224731,-0.28215 0.085266,-0.10852 0.2464966,-0.16588 0.1612305,-0.0589 0.3736206,-0.0589 0.2108398,0 0.3426147,0.0496 0.1317749,0.0496 0.1937866,0.12558 0.062012,0.0744 0.086817,0.18913 0.013953,0.0713 0.013953,0.25735 v 0.37207 q 0,0.38913 0.017053,0.493 0.018603,0.10232 0.071313,0.19688 H 4.9680246 q -0.043408,-0.0868 -0.05581,-0.20309 z m -0.023254,-0.62321 q -0.1519287,0.062 -0.4557862,0.10542 -0.1720825,0.0248 -0.2433959,0.0558 -0.071314,0.031 -0.1100708,0.0915 -0.038757,0.0589 -0.038757,0.13178 0,0.11162 0.083716,0.18604 0.085266,0.0744 0.2480468,0.0744 0.1612305,0 0.2868042,-0.0698 0.1255737,-0.0713 0.1844849,-0.19379 0.044958,-0.0946 0.044958,-0.27905 z"
         style="font-size:3.17499995px;fill:#dee3db;stroke-width:0.26458332"
         id="path4872"
         inkscape:connector-curvature="0" />
    </g>
    <g
       aria-label="b"
       style="font-style:normal;font-variant:normal;font-weight:normal;font-stretch:normal;font-size:3.17499995px;line-height:1.25;font-family:Arial;-inkscape-font-specification:Arial;letter-spacing:0px;word-spacing:0px;fill:#dee3db;fill-opacity:1;stroke:none;stroke-width:0.26458332"
       id="text4135"
       transform="translate(-0.42426701,0.03222333)">
      <path
         d="m 11.001916,206.97223 h -0.258899 v -2.27273 h 0.279052 v 0.8108 q 0.176734,-0.22169 0.451136,-0.22169 0.151928,0 0.286804,0.062 0.136426,0.0605 0.223242,0.17209 0.08837,0.11007 0.137976,0.26665 0.04961,0.15658 0.04961,0.33486 0,0.42323 -0.209289,0.65422 -0.20929,0.231 -0.502295,0.231 -0.291455,0 -0.457336,-0.2434 z m -0.0031,-0.83561 q 0,0.29611 0.08061,0.42788 0.131775,0.21549 0.356568,0.21549 0.182934,0 0.316259,-0.15813 0.133326,-0.15968 0.133326,-0.47439 0,-0.32246 -0.128675,-0.47594 -0.127124,-0.15348 -0.308508,-0.15348 -0.182935,0 -0.31626,0.15968 -0.133325,0.15813 -0.133325,0.45889 z"
         style="fill:#dee3db;stroke-width:0.26458332"
         id="path4890"
         inkscape:connector-curvature="0" />
    </g>
    <g
       aria-label="&gt;&lt;="
       style="font-style:normal;font-variant:normal;font-weight:normal;font-stretch:normal;font-size:3.17499995px;line-height:1.25;font-family:Arial;-inkscape-font-specification:Arial;letter-spacing:0px;word-spacing:0px;fill:#000000;fill-opacity:1;stroke:none;stroke-width:0.26458332"
       id="text4895"
       transform="translate(-0.33028567,42.056819)">
      <path
         d="m 7.1123746,211.67032 -1.5053345,0.64338 v -0.27751 l 1.1921753,-0.49454 -1.1921753,-0.48989 v -0.2775 l 1.5053345,0.63562 z"
         style="fill:#dee3db;stroke-width:0.26458332"
         id="path4920"
         inkscape:connector-curvature="0" />
      <path
         d="m 7.4611905,211.67032 v -0.26044 l 1.5053345,-0.63562 v 0.2775 l -1.1937256,0.48989 1.1937256,0.49454 v 0.27751 z"
         style="fill:#dee3db;stroke-width:0.26458332"
         id="path4922"
         inkscape:connector-curvature="0" />
      <path
         d="M 10.819125,211.32771 H 9.3184415 v -0.26045 h 1.5006835 z m 0,0.68988 H 9.3184415 v -0.26045 h 1.5006835 z"
         style="fill:#dee3db;stroke-width:0.26458332"
         id="path4924"
         inkscape:connector-curvature="0" />
    </g>
    <g
       aria-label="o1"
       style="font-style:normal;font-variant:normal;font-weight:normal;font-stretch:normal;font-size:3.17499995px;line-height:1.25;font-family:Arial;-inkscape-font-specification:Arial;letter-spacing:0px;word-spacing:0px;fill:#000000;fill-opacity:1;stroke:none;stroke-width:0.26458332"
       id="text4899"
       transform="translate(-4.1010417,30.634969)">
      <path
         d="m 10.760104,217.76034 q 0,-0.45734 0.254248,-0.67748 0.21239,-0.18294 0.517798,-0.18294 0.339514,0 0.555005,0.22325 0.21549,0.22169 0.21549,0.61391 0,0.31781 -0.09612,0.50075 -0.09457,0.18138 -0.277502,0.28215 -0.181384,0.10077 -0.396875,0.10077 -0.345715,0 -0.559656,-0.22169 -0.21239,-0.22169 -0.21239,-0.63872 z m 0.286804,0 q 0,0.31626 0.137976,0.47439 0.137976,0.15658 0.347266,0.15658 0.207739,0 0.345715,-0.15813 0.137976,-0.15813 0.137976,-0.48215 0,-0.3054 -0.139526,-0.46198 -0.137976,-0.15813 -0.344165,-0.15813 -0.20929,0 -0.347266,0.15658 -0.137976,0.15658 -0.137976,0.47284 z"
         style="fill:#dee3db;stroke-width:0.26458332"
         id="path4915"
         inkscape:connector-curvature="0" />
      <path
         d="m 13.604892,218.58354 h -0.279053 v -1.77818 q -0.100769,0.0961 -0.2651,0.19223 -0.162781,0.0961 -0.293006,0.14418 v -0.26975 q 0.234095,-0.11007 0.409278,-0.26665 0.175183,-0.15658 0.248047,-0.30386 h 0.179834 z"
         style="fill:#dee3db;stroke-width:0.26458332"
         id="path4917"
         inkscape:connector-curvature="0" />
    </g>
    <g
       aria-label="off"
       style="font-style:normal;font-variant:normal;font-weight:normal;font-stretch:normal;font-size:3.17499995px;line-height:1.25;font-family:Arial;-inkscape-font-specification:Arial;letter-spacing:0px;word-spacing:0px;fill:#000000;fill-opacity:1;stroke:none;stroke-width:0.26458332"
       id="text4913"
       transform="translate(4.8082705,0.18898843)">
      <path
         d="m 1.1448545,217.8601 q 0,-0.45734 0.254248,-0.67748 0.2123901,-0.18293 0.5177979,-0.18293 0.3395141,0 0.5550048,0.22324 0.2154908,0.22169 0.2154908,0.61391 0,0.31781 -0.096118,0.50075 -0.094568,0.18138 -0.2775024,0.28215 -0.1813843,0.10077 -0.396875,0.10077 -0.3457154,0 -0.5596558,-0.22169 -0.2123901,-0.22169 -0.2123903,-0.63872 z m 0.2868042,0 q 0,0.31626 0.137976,0.47439 0.1379761,0.15658 0.3472657,0.15658 0.2077392,0 0.3457153,-0.15813 0.1379761,-0.15813 0.1379761,-0.48214 0,-0.30541 -0.1395264,-0.46199 -0.1379761,-0.15813 -0.344165,-0.15813 -0.2092896,0 -0.3472657,0.15658 -0.137976,0.15658 -0.137976,0.47284 z"
         style="fill:#dee3db;stroke-width:0.26458332"
         id="path4927"
         inkscape:connector-curvature="0" />
      <path
         d="m 3.0827207,218.6833 v -1.42937 H 2.8362241 v -0.21704 h 0.2464966 v -0.17518 q 0,-0.16588 0.029456,-0.2465 0.040308,-0.10852 0.1410767,-0.17518 0.1023193,-0.0682 0.2852539,-0.0682 0.1178223,0 0.2604492,0.0279 l -0.041858,0.2434 q -0.086816,-0.0155 -0.164331,-0.0155 -0.1271241,0 -0.179834,0.0543 -0.05271,0.0543 -0.05271,0.20308 v 0.15193 h 0.3209107 v 0.21704 H 3.3602231 v 1.42937 z"
         style="fill:#dee3db;stroke-width:0.26458332"
         id="path4929"
         inkscape:connector-curvature="0" />
      <path
         d="m 3.9074766,218.6833 v -1.42937 H 3.66098 v -0.21704 h 0.2464966 v -0.17518 q 0,-0.16588 0.029456,-0.2465 0.040308,-0.10852 0.1410766,-0.17518 0.1023193,-0.0682 0.2852539,-0.0682 0.1178223,0 0.2604492,0.0279 l -0.041858,0.2434 q -0.086816,-0.0155 -0.164331,-0.0155 -0.1271241,0 -0.179834,0.0543 -0.05271,0.0543 -0.05271,0.20308 v 0.15193 H 4.50589 v 0.21704 H 4.184979 v 1.42937 z"
         style="fill:#dee3db;stroke-width:0.26458332"
         id="path4931"
         inkscape:connector-curvature="0" />
    </g>
    <text
       xml:space="preserve"
       style="font-style:normal;font-variant:normal;font-weight:normal;font-stretch:normal;font-size:3.17499995px;line-height:1.25;font-family:Arial;-inkscape-font-specification:Arial;letter-spacing:0px;word-spacing:0px;fill:#000000;fill-opacity:1;stroke:none;stroke-width:0.26458332"
       x="3.1517456"
       y="212.33331"
       id="text4936"
       inkscape:transform-center-x="0.56696432"
       inkscape:transform-center-y="-0.23623513"><tspan
         sodipodi:role="line"
         id="tspan4934"
         x="3.1517456"
         y="212.33331"
         style="stroke-width:0.26458332">x</tspan></text>
  </g>
</svg>
