<?xml version="1.0" encoding="UTF-8" standalone="no"?>
<!-- Created with Inkscape (http://www.inkscape.org/) -->

<svg
   xmlns:dc="http://purl.org/dc/elements/1.1/"
   xmlns:cc="http://creativecommons.org/ns#"
   xmlns:rdf="http://www.w3.org/1999/02/22-rdf-syntax-ns#"
   xmlns:svg="http://www.w3.org/2000/svg"
   xmlns="http://www.w3.org/2000/svg"
   xmlns:sodipodi="http://sodipodi.sourceforge.net/DTD/sodipodi-0.dtd"
   xmlns:inkscape="http://www.inkscape.org/namespaces/inkscape"
   width="60"
   height="380"
   viewBox="0 0 15.875001 100.54167"
   version="1.1"
   id="svg8"
   inkscape:version="0.92.2 5c3e80d, 2017-08-06"
   sodipodi:docname="UWaveShape.svg"
   inkscape:export-filename="/Users/francesco/Documents/VCVRack/Rack/plugins/UModules/res/Compare.png"
   inkscape:export-xdpi="96"
   inkscape:export-ydpi="96">
  <defs
     id="defs2" />
  <sodipodi:namedview
     id="base"
     pagecolor="#ffffff"
     bordercolor="#666666"
     borderopacity="1.0"
     inkscape:pageopacity="0.0"
     inkscape:pageshadow="2"
     inkscape:zoom="5.6"
     inkscape:cx="46.648221"
     inkscape:cy="353.06323"
     inkscape:document-units="mm"
     inkscape:current-layer="layer1"
     showgrid="false"
     units="px"
     inkscape:snap-bbox="true"
     inkscape:snap-page="true"
     inkscape:bbox-nodes="true"
     inkscape:snap-bbox-edge-midpoints="true"
     inkscape:window-width="1280"
     inkscape:window-height="778"
     inkscape:window-x="0"
     inkscape:window-y="0"
     inkscape:window-maximized="1" />
  <metadata
     id="metadata5">
    <rdf:RDF>
      <cc:Work
         rdf:about="">
        <dc:format>image/svg+xml</dc:format>
        <dc:type
           rdf:resource="http://purl.org/dc/dcmitype/StillImage" />
        <dc:title></dc:title>
      </cc:Work>
    </rdf:RDF>
  </metadata>
  <g
     inkscape:label="Layer 1"
     inkscape:groupmode="layer"
     id="layer1"
     transform="translate(0,-196.45832)">
    <path
       style="opacity:1;vector-effect:none;fill:#4d4d4d;fill-opacity:1;fill-rule:evenodd;stroke:none;stroke-width:0.39687505;stroke-linecap:butt;stroke-linejoin:round;stroke-miterlimit:4;stroke-dasharray:none;stroke-dashoffset:0;stroke-opacity:1;paint-order:normal"
       d="M 0,196.45832 H 15.875 V 297 H 0 Z"
       id="rect817"
       inkscape:connector-curvature="0" />
    <g
       aria-label="UWvShp"
       style="font-style:normal;font-weight:normal;font-size:10.58333302px;line-height:1.25;font-family:sans-serif;letter-spacing:0px;word-spacing:0px;fill:#000000;fill-opacity:1;stroke:none;stroke-width:0.26458332"
       id="text4627"
       transform="matrix(0.4905309,0,0,0.53025207,4.0171692,95.245818)">
      <path
         d="m 0.52916668,199.04593 h 0.34967718 v 1.56235 q 0,0.41341 0.14986164,0.596 0.1498617,0.18087 0.4857585,0.18087 0.3341742,0 0.4840359,-0.18087 0.1498616,-0.18259 0.1498616,-0.596 v -1.56235 h 0.3496772 v 1.60541 q 0,0.50299 -0.2497694,0.75965 -0.2480469,0.25665 -0.7338053,0.25665 -0.487481,0 -0.73725045,-0.25665 -0.24804687,-0.25666 -0.24804687,-0.75965 z"
         style="font-size:3.52777767px;fill:#ffffff;stroke-width:0.26458332"
         id="path4629"
         inkscape:connector-curvature="0" />
      <path
         d="m 2.923508,199.04593 h 0.3513997 l 0.54088,2.17385 0.5391574,-2.17385 h 0.3910183 l 0.54088,2.17385 0.5391574,-2.17385 h 0.3531223 l -0.6459554,2.57176 H 5.0956406 l -0.5426025,-2.23242 -0.5477702,2.23242 H 3.5677408 Z"
         style="font-size:3.52777767px;fill:#ffffff;stroke-width:0.26458332"
         id="path4631"
         inkscape:connector-curvature="0" />
      <path
         d="m 6.3978867,199.68844 h 0.3358968 l 0.6028917,1.61919 0.6028917,-1.61919 h 0.3358968 l -0.72347,1.92925 H 7.1213568 Z"
         style="font-size:3.52777767px;fill:#ffffff;stroke-width:0.26458332"
         id="path4633"
         inkscape:connector-curvature="0" />
      <path
         d="m 10.268451,199.13033 v 0.33934 q -0.198093,-0.0947 -0.3737927,-0.14124 -0.1756999,-0.0465 -0.3393419,-0.0465 -0.2842204,0 -0.4392497,0.11024 -0.1533067,0.11024 -0.1533067,0.3135 0,0.17054 0.1016303,0.25839 0.1033529,0.0861 0.3892958,0.13952 l 0.2101508,0.0431 q 0.3892961,0.0741 0.5736081,0.26182 0.186035,0.18604 0.186035,0.49954 0,0.37379 -0.251492,0.56672 -0.2497689,0.19292 -0.7338048,0.19292 -0.1825901,0 -0.3892958,-0.0413 -0.2049832,-0.0413 -0.4254693,-0.1223 v -0.35829 q 0.2118734,0.11886 0.415134,0.17915 0.2032606,0.0603 0.3996311,0.0603 0.2980007,0 0.4599202,-0.11714 0.1619196,-0.11713 0.1619196,-0.33417 0,-0.18948 -0.1171334,-0.29628 -0.1154107,-0.1068 -0.380683,-0.1602 l -0.2118734,-0.0413 q -0.3892957,-0.0775 -0.5632731,-0.24288 -0.1739773,-0.16536 -0.1739773,-0.45992 0,-0.34106 0.2394341,-0.53743 0.2411567,-0.19637 0.6631809,-0.19637 0.1808675,0 0.3686252,0.0327 0.187758,0.0327 0.384128,0.0982 z"
         style="font-size:3.52777767px;fill:#ffffff;stroke-width:0.26458332"
         id="path4635"
         inkscape:connector-curvature="0" />
      <path
         d="m 12.555995,200.45325 v 1.16444 h -0.316949 v -1.15411 q 0,-0.27388 -0.106798,-0.40996 -0.106798,-0.13608 -0.320394,-0.13608 -0.25666,0 -0.404799,0.16364 -0.148139,0.16364 -0.148139,0.44614 v 1.09037 h -0.318671 v -2.68028 h 0.318671 v 1.05075 q 0.113688,-0.17398 0.266995,-0.2601 0.155029,-0.0861 0.356568,-0.0861 0.332451,0 0.502983,0.2067 0.170533,0.20499 0.170533,0.60462 z"
         style="font-size:3.52777767px;fill:#ffffff;stroke-width:0.26458332"
         id="path4637"
         inkscape:connector-curvature="0" />
      <path
         d="m 13.498228,201.3283 v 1.0232 h -0.318671 v -2.66306 h 0.318671 v 0.29283 q 0.09991,-0.17225 0.251492,-0.25494 0.153307,-0.0844 0.36518,-0.0844 0.3514,0 0.570164,0.27905 0.220486,0.27905 0.220486,0.73381 0,0.45475 -0.220486,0.7338 -0.218764,0.27905 -0.570164,0.27905 -0.211873,0 -0.36518,-0.0827 -0.151584,-0.0844 -0.251492,-0.25666 z m 1.078315,-0.67351 q 0,-0.34968 -0.144694,-0.54777 -0.142971,-0.19982 -0.394463,-0.19982 -0.251492,0 -0.396186,0.19982 -0.142972,0.19809 -0.142972,0.54777 0,0.34967 0.142972,0.54949 0.144694,0.19809 0.396186,0.19809 0.251492,0 0.394463,-0.19809 0.144694,-0.19982 0.144694,-0.54949 z"
         style="font-size:3.52777767px;fill:#ffffff;stroke-width:0.26458332"
         id="path4639"
         inkscape:connector-curvature="0" />
    </g>
    <g
       id="g4733"
       transform="translate(-0.7707175,-2.3056548)">
      <g
         transform="translate(6.8400401,1.3555779)"
         id="text4131"
         style="font-style:normal;font-variant:normal;font-weight:normal;font-stretch:normal;font-size:4.93888855px;line-height:1.25;font-family:Arial;-inkscape-font-specification:Arial;letter-spacing:0px;word-spacing:0px;fill:#000000;fill-opacity:1;stroke:none;stroke-width:0.26458332"
         aria-label="a">
        <path
           inkscape:connector-curvature="0"
           id="path4872"
           style="font-size:3.17499995px;fill:#dee3db;stroke-width:0.26458332"
           d="m 4.9122141,207.28885 q -0.1550293,0.13178 -0.2992066,0.18604 -0.1426269,0.0543 -0.306958,0.0543 -0.2713012,0 -0.4170288,-0.13177 -0.1457275,-0.13333 -0.1457275,-0.33952 0,-0.12092 0.05426,-0.22014 0.055811,-0.10077 0.1441773,-0.16123 0.089917,-0.0605 0.2015381,-0.0915 0.082165,-0.0217 0.2480468,-0.0419 0.3379639,-0.0403 0.4976441,-0.0961 0.00155,-0.0574 0.00155,-0.0729 0,-0.17053 -0.079065,-0.24029 -0.1069702,-0.0946 -0.31781,-0.0946 -0.1968872,0 -0.2914551,0.0698 -0.093018,0.0682 -0.1379761,0.2434 l -0.2728515,-0.0372 q 0.037207,-0.17518 0.1224731,-0.28215 0.085266,-0.10852 0.2464966,-0.16588 0.1612305,-0.0589 0.3736206,-0.0589 0.2108398,0 0.3426147,0.0496 0.1317749,0.0496 0.1937866,0.12558 0.062012,0.0744 0.086817,0.18913 0.013953,0.0713 0.013953,0.25735 v 0.37207 q 0,0.38913 0.017053,0.493 0.018603,0.10232 0.071313,0.19688 H 4.9680246 q -0.043408,-0.0868 -0.05581,-0.20309 z m -0.023254,-0.62321 q -0.1519287,0.062 -0.4557862,0.10542 -0.1720825,0.0248 -0.2433959,0.0558 -0.071314,0.031 -0.1100708,0.0915 -0.038757,0.0589 -0.038757,0.13178 0,0.11162 0.083716,0.18604 0.085266,0.0744 0.2480468,0.0744 0.1612305,0 0.2868042,-0.0698 0.1255737,-0.0713 0.1844849,-0.19379 0.044958,-0.0946 0.044958,-0.27905 z" />
      </g>
      <g
         transform="translate(-0.15968367,10.842557)"
         id="text4135"
         style="font-style:normal;font-variant:normal;font-weight:normal;font-stretch:normal;font-size:3.17499995px;line-height:1.25;font-family:Arial;-inkscape-font-specification:Arial;letter-spacing:0px;word-spacing:0px;fill:#dee3db;fill-opacity:1;stroke:none;stroke-width:0.26458332"
         aria-label="b">
        <path
           inkscape:connector-curvature="0"
           id="path4890"
           style="fill:#dee3db;stroke-width:0.26458332"
           d="m 11.001916,206.97223 h -0.258899 v -2.27273 h 0.279052 v 0.8108 q 0.176734,-0.22169 0.451136,-0.22169 0.151928,0 0.286804,0.062 0.136426,0.0605 0.223242,0.17209 0.08837,0.11007 0.137976,0.26665 0.04961,0.15658 0.04961,0.33486 0,0.42323 -0.209289,0.65422 -0.20929,0.231 -0.502295,0.231 -0.291455,0 -0.457336,-0.2434 z m -0.0031,-0.83561 q 0,0.29611 0.08061,0.42788 0.131775,0.21549 0.356568,0.21549 0.182934,0 0.316259,-0.15813 0.133326,-0.15968 0.133326,-0.47439 0,-0.32246 -0.128675,-0.47594 -0.127124,-0.15348 -0.308508,-0.15348 -0.182935,0 -0.31626,0.15968 -0.133325,0.15813 -0.133325,0.45889 z" />
      </g>
      <g
         transform="translate(-1.5875,-1.0583333)"
         id="text67"
         style="font-style:normal;font-weight:normal;font-size:10.58333302px;line-height:1.25;font-family:sans-serif;letter-spacing:0px;word-spacing:0px;fill:#000000;fill-opacity:1;stroke:none;stroke-width:0.26458332"
         aria-label="*">
        <path
           inkscape:connector-curvature="0"
           id="path4647"
           style="font-size:4.23333311px;fill:#ffffff;stroke-width:0.26458332"
           d="m 9.789583,212.81482 -0.7420735,0.40101 0.7420735,0.40308 -0.1198893,0.20257 -0.6945312,-0.41962 v 0.77929 H 8.739518 v -0.77929 l -0.6945313,0.41962 -0.1198893,-0.20257 0.7420736,-0.40308 -0.7420736,-0.40101 0.1198893,-0.20464 0.6945313,0.41961 v -0.77928 h 0.2356445 v 0.77928 l 0.6945312,-0.41961 z" />
      </g>
      <g
         transform="translate(-1.0583333,3.0710566)"
         id="text71"
         style="font-style:normal;font-weight:normal;font-size:3.52777767px;line-height:1.25;font-family:sans-serif;letter-spacing:0px;word-spacing:0px;fill:#ffffff;fill-opacity:1;stroke:none;stroke-width:0.26458332"
         aria-label="f(">
        <path
           inkscape:connector-curvature="0"
           id="path4642"
           style="font-size:3.52777767px;fill:#ffffff;stroke-width:0.26458332"
           d="m 7.8197273,221.24406 v 0.26355 H 7.5165589 q -0.1705322,0 -0.2377116,0.0689 -0.065457,0.0689 -0.065457,0.24805 v 0.17053 h 0.5219319 v 0.24633 H 7.2133905 v 1.68293 H 6.8947192 v -1.68293 H 6.5915508 v -0.24633 h 0.3031684 v -0.13436 q 0,-0.32211 0.1498616,-0.46853 0.1498617,-0.14814 0.4754232,-0.14814 z" />
        <path
           inkscape:connector-curvature="0"
           id="path4644"
           style="font-size:3.52777767px;fill:#ffffff;stroke-width:0.26458332"
           d="m 8.8446432,221.24751 q -0.2308214,0.39618 -0.342787,0.78376 -0.1119656,0.38757 -0.1119656,0.78548 0,0.39791 0.1119656,0.78893 0.1136881,0.38929 0.342787,0.78375 H 8.5690356 q -0.2583822,-0.40479 -0.3875733,-0.79581 -0.1274685,-0.39102 -0.1274685,-0.77687 0,-0.38413 0.1274685,-0.77343 0.1274686,-0.38929 0.3875733,-0.79581 z" />
      </g>
      <path
         inkscape:connector-curvature="0"
         id="path4623"
         d="m 11.129033,219.97009 c 0.03403,2.74917 0.03403,1.75699 0.03403,1.75699"
         style="fill:none;stroke:#ffffff;stroke-width:0.26458332px;stroke-linecap:butt;stroke-linejoin:miter;stroke-opacity:1" />
      <path
         inkscape:connector-curvature="0"
         id="path4650"
         d="m 8.6642179,213.73834 c 1.1923964,1.38386 1.1923964,1.38386 1.1923964,1.38386"
         style="fill:none;stroke:#ffffff;stroke-width:0.26458332px;stroke-linecap:butt;stroke-linejoin:miter;stroke-opacity:1" />
      <path
         inkscape:connector-curvature="0"
         id="path4652"
         d="m 7.9692957,230.78094 c 0.7686485,-1.90388 0.6222392,-1.55419 0.6222392,-1.55419"
         style="fill:#ffffff;stroke:#ffffff;stroke-width:0.21118523px;stroke-linecap:butt;stroke-linejoin:miter;stroke-opacity:1" />
      <g
         transform="matrix(0.50367613,0,0,0.56374131,3.0853986,106.95286)"
         id="text4656"
         style="font-style:normal;font-weight:normal;font-size:10.58333302px;line-height:1.25;font-family:sans-serif;letter-spacing:0px;word-spacing:0px;fill:#000000;fill-opacity:1;stroke:none;stroke-width:0.26458332"
         aria-label="out">
        <path
           inkscape:connector-curvature="0"
           id="path4658"
           style="font-size:3.17499995px;fill:#ffffff;stroke-width:0.26458332"
           d="m 7.8700988,238.01127 q -0.2294434,0 -0.3627686,0.17983 -0.1333252,0.17828 -0.1333252,0.48989 0,0.31161 0.1317749,0.49145 0.1333252,0.17828 0.3643189,0.17828 0.227893,0 0.3612182,-0.17983 0.1333252,-0.17984 0.1333252,-0.4899 0,-0.3085 -0.1333252,-0.48834 -0.1333252,-0.18138 -0.3612182,-0.18138 z m 0,-0.24185 q 0.3720703,0 0.5844604,0.24185 0.2123901,0.24184 0.2123901,0.66972 0,0.42633 -0.2123901,0.66973 -0.2123901,0.24185 -0.5844604,0.24185 -0.3736206,0 -0.5860108,-0.24185 -0.2108398,-0.2434 -0.2108398,-0.66973 0,-0.42788 0.2108398,-0.66972 0.2123902,-0.24185 0.5860108,-0.24185 z" />
        <path
           inkscape:connector-curvature="0"
           id="path4660"
           style="font-size:3.17499995px;fill:#ffffff;stroke-width:0.26458332"
           d="m 9.1087828,238.86238 v -1.0511 h 0.2852539 v 1.04025 q 0,0.24649 0.096118,0.37052 0.096118,0.12247 0.2883544,0.12247 0.2309939,0 0.3643189,-0.14728 0.134876,-0.14728 0.134876,-0.40152 v -0.98444 h 0.285254 v 1.73633 h -0.285254 v -0.26665 q -0.10387,0.15813 -0.241846,0.23564 -0.136426,0.076 -0.3178103,0.076 -0.2992065,0 -0.4542358,-0.18604 -0.1550293,-0.18603 -0.1550293,-0.54415 z" />
        <path
           inkscape:connector-curvature="0"
           id="path4662"
           style="font-size:3.17499995px;fill:#ffffff;stroke-width:0.26458332"
           d="m 11.435772,237.31829 v 0.49299 h 0.587561 v 0.22169 h -0.587561 v 0.94258 q 0,0.21239 0.05736,0.27285 0.05891,0.0605 0.237195,0.0605 h 0.293005 v 0.23875 h -0.293005 q -0.330212,0 -0.455786,-0.12248 -0.125574,-0.12402 -0.125574,-0.44958 v -0.94258 h -0.209289 v -0.22169 h 0.209289 v -0.49299 z" />
      </g>
    </g>
    <path
       style="fill:#ffffff;stroke:#ffffff;stroke-width:0.28580633px;stroke-linecap:butt;stroke-linejoin:miter;stroke-opacity:1"
       d="m 1.9553842,248.93077 c 3.210044,0 11.9546458,-0.0471 11.9546458,-0.0471 v 0"
       id="path4665"
       inkscape:connector-curvature="0" />
    <g
       id="g4715"
       transform="matrix(1,0,0,1.0000014,-0.3760467,-6.319534)">
      <g
         aria-label="a"
         style="font-style:normal;font-variant:normal;font-weight:normal;font-stretch:normal;font-size:4.93888855px;line-height:1.25;font-family:Arial;-inkscape-font-specification:Arial;letter-spacing:0px;word-spacing:0px;fill:#000000;fill-opacity:1;stroke:none;stroke-width:0.26458332"
         id="g4669"
         transform="translate(6.4453692,52.599418)">
        <path
           d="m 4.9122141,207.28885 q -0.1550293,0.13178 -0.2992066,0.18604 -0.1426269,0.0543 -0.306958,0.0543 -0.2713012,0 -0.4170288,-0.13177 -0.1457275,-0.13333 -0.1457275,-0.33952 0,-0.12092 0.05426,-0.22014 0.055811,-0.10077 0.1441773,-0.16123 0.089917,-0.0605 0.2015381,-0.0915 0.082165,-0.0217 0.2480468,-0.0419 0.3379639,-0.0403 0.4976441,-0.0961 0.00155,-0.0574 0.00155,-0.0729 0,-0.17053 -0.079065,-0.24029 -0.1069702,-0.0946 -0.31781,-0.0946 -0.1968872,0 -0.2914551,0.0698 -0.093018,0.0682 -0.1379761,0.2434 l -0.2728515,-0.0372 q 0.037207,-0.17518 0.1224731,-0.28215 0.085266,-0.10852 0.2464966,-0.16588 0.1612305,-0.0589 0.3736206,-0.0589 0.2108398,0 0.3426147,0.0496 0.1317749,0.0496 0.1937866,0.12558 0.062012,0.0744 0.086817,0.18913 0.013953,0.0713 0.013953,0.25735 v 0.37207 q 0,0.38913 0.017053,0.493 0.018603,0.10232 0.071313,0.19688 H 4.9680246 q -0.043408,-0.0868 -0.05581,-0.20309 z m -0.023254,-0.62321 q -0.1519287,0.062 -0.4557862,0.10542 -0.1720825,0.0248 -0.2433959,0.0558 -0.071314,0.031 -0.1100708,0.0915 -0.038757,0.0589 -0.038757,0.13178 0,0.11162 0.083716,0.18604 0.085266,0.0744 0.2480468,0.0744 0.1612305,0 0.2868042,-0.0698 0.1255737,-0.0713 0.1844849,-0.19379 0.044958,-0.0946 0.044958,-0.27905 z"
           style="font-size:3.17499995px;fill:#dee3db;stroke-width:0.26458332"
           id="path4667"
           inkscape:connector-curvature="0" />
      </g>
      <g
         aria-label="b"
         style="font-style:normal;font-variant:normal;font-weight:normal;font-stretch:normal;font-size:3.17499995px;line-height:1.25;font-family:Arial;-inkscape-font-specification:Arial;letter-spacing:0px;word-spacing:0px;fill:#dee3db;fill-opacity:1;stroke:none;stroke-width:0.26458332"
         id="g4673"
         transform="translate(-0.55435449,62.086397)">
        <path
           d="m 11.001916,206.97223 h -0.258899 v -2.27273 h 0.279052 v 0.8108 q 0.176734,-0.22169 0.451136,-0.22169 0.151928,0 0.286804,0.062 0.136426,0.0605 0.223242,0.17209 0.08837,0.11007 0.137976,0.26665 0.04961,0.15658 0.04961,0.33486 0,0.42323 -0.209289,0.65422 -0.20929,0.231 -0.502295,0.231 -0.291455,0 -0.457336,-0.2434 z m -0.0031,-0.83561 q 0,0.29611 0.08061,0.42788 0.131775,0.21549 0.356568,0.21549 0.182934,0 0.316259,-0.15813 0.133326,-0.15968 0.133326,-0.47439 0,-0.32246 -0.128675,-0.47594 -0.127124,-0.15348 -0.308508,-0.15348 -0.182935,0 -0.31626,0.15968 -0.133325,0.15813 -0.133325,0.45889 z"
           style="fill:#dee3db;stroke-width:0.26458332"
           id="path4671"
           inkscape:connector-curvature="0" />
      </g>
      <g
         aria-label="*"
         style="font-style:normal;font-weight:normal;font-size:10.58333302px;line-height:1.25;font-family:sans-serif;letter-spacing:0px;word-spacing:0px;fill:#000000;fill-opacity:1;stroke:none;stroke-width:0.26458332"
         id="g4677"
         transform="translate(-1.9821708,50.185507)">
        <path
           d="m 9.789583,212.81482 -0.7420735,0.40101 0.7420735,0.40308 -0.1198893,0.20257 -0.6945312,-0.41962 v 0.77929 H 8.739518 v -0.77929 l -0.6945313,0.41962 -0.1198893,-0.20257 0.7420736,-0.40308 -0.7420736,-0.40101 0.1198893,-0.20464 0.6945313,0.41961 v -0.77928 h 0.2356445 v 0.77928 l 0.6945312,-0.41961 z"
           style="font-size:4.23333311px;fill:#ffffff;stroke-width:0.26458332"
           id="path4675"
           inkscape:connector-curvature="0" />
      </g>
      <g
         aria-label="f("
         style="font-style:normal;font-weight:normal;font-size:3.52777767px;line-height:1.25;font-family:sans-serif;letter-spacing:0px;word-spacing:0px;fill:#ffffff;fill-opacity:1;stroke:none;stroke-width:0.26458332"
         id="g4683"
         transform="translate(-1.4530041,54.314897)">
        <path
           d="m 7.8197273,221.24406 v 0.26355 H 7.5165589 q -0.1705322,0 -0.2377116,0.0689 -0.065457,0.0689 -0.065457,0.24805 v 0.17053 h 0.5219319 v 0.24633 H 7.2133905 v 1.68293 H 6.8947192 v -1.68293 H 6.5915508 v -0.24633 h 0.3031684 v -0.13436 q 0,-0.32211 0.1498616,-0.46853 0.1498617,-0.14814 0.4754232,-0.14814 z"
           style="font-size:3.52777767px;fill:#ffffff;stroke-width:0.26458332"
           id="path4679"
           inkscape:connector-curvature="0" />
        <path
           d="m 8.8446432,221.24751 q -0.2308214,0.39618 -0.342787,0.78376 -0.1119656,0.38757 -0.1119656,0.78548 0,0.39791 0.1119656,0.78893 0.1136881,0.38929 0.342787,0.78375 H 8.5690356 q -0.2583822,-0.40479 -0.3875733,-0.79581 -0.1274685,-0.39102 -0.1274685,-0.77687 0,-0.38413 0.1274685,-0.77343 0.1274686,-0.38929 0.3875733,-0.79581 z"
           style="font-size:3.52777767px;fill:#ffffff;stroke-width:0.26458332"
           id="path4681"
           inkscape:connector-curvature="0" />
      </g>
      <path
         style="fill:none;stroke:#ffffff;stroke-width:0.26458332px;stroke-linecap:butt;stroke-linejoin:miter;stroke-opacity:1"
         d="m 10.734362,271.21393 c 0.03403,2.74917 0.03403,1.75699 0.03403,1.75699"
         id="path4685"
         inkscape:connector-curvature="0" />
      <path
         style="fill:none;stroke:#ffffff;stroke-width:0.26458332px;stroke-linecap:butt;stroke-linejoin:miter;stroke-opacity:1"
         d="m 8.269547,264.98218 c 1.1923968,1.38386 1.1923968,1.38386 1.1923968,1.38386"
         id="path4687"
         inkscape:connector-curvature="0" />
      <path
         style="fill:#ffffff;stroke:#ffffff;stroke-width:0.21118523px;stroke-linecap:butt;stroke-linejoin:miter;stroke-opacity:1"
         d="M 7.5746248,282.02478 C 8.3432733,280.1209 8.196864,280.47059 8.196864,280.47059"
         id="path4689"
         inkscape:connector-curvature="0" />
      <g
         aria-label="out"
         style="font-style:normal;font-weight:normal;font-size:10.58333302px;line-height:1.25;font-family:sans-serif;letter-spacing:0px;word-spacing:0px;fill:#000000;fill-opacity:1;stroke:none;stroke-width:0.26458332"
         id="g4697"
         transform="matrix(0.50367613,0,0,0.56374131,2.6907277,158.1967)">
        <path
           d="m 7.8700988,238.01127 q -0.2294434,0 -0.3627686,0.17983 -0.1333252,0.17828 -0.1333252,0.48989 0,0.31161 0.1317749,0.49145 0.1333252,0.17828 0.3643189,0.17828 0.227893,0 0.3612182,-0.17983 0.1333252,-0.17984 0.1333252,-0.4899 0,-0.3085 -0.1333252,-0.48834 -0.1333252,-0.18138 -0.3612182,-0.18138 z m 0,-0.24185 q 0.3720703,0 0.5844604,0.24185 0.2123901,0.24184 0.2123901,0.66972 0,0.42633 -0.2123901,0.66973 -0.2123901,0.24185 -0.5844604,0.24185 -0.3736206,0 -0.5860108,-0.24185 -0.2108398,-0.2434 -0.2108398,-0.66973 0,-0.42788 0.2108398,-0.66972 0.2123902,-0.24185 0.5860108,-0.24185 z"
           style="font-size:3.17499995px;fill:#ffffff;stroke-width:0.26458332"
           id="path4691"
           inkscape:connector-curvature="0" />
        <path
           d="m 9.1087828,238.86238 v -1.0511 h 0.2852539 v 1.04025 q 0,0.24649 0.096118,0.37052 0.096118,0.12247 0.2883544,0.12247 0.2309939,0 0.3643189,-0.14728 0.134876,-0.14728 0.134876,-0.40152 v -0.98444 h 0.285254 v 1.73633 h -0.285254 v -0.26665 q -0.10387,0.15813 -0.241846,0.23564 -0.136426,0.076 -0.3178103,0.076 -0.2992065,0 -0.4542358,-0.18604 -0.1550293,-0.18603 -0.1550293,-0.54415 z"
           style="font-size:3.17499995px;fill:#ffffff;stroke-width:0.26458332"
           id="path4693"
           inkscape:connector-curvature="0" />
        <path
           d="m 11.435772,237.31829 v 0.49299 h 0.587561 v 0.22169 h -0.587561 v 0.94258 q 0,0.21239 0.05736,0.27285 0.05891,0.0605 0.237195,0.0605 h 0.293005 v 0.23875 h -0.293005 q -0.330212,0 -0.455786,-0.12248 -0.125574,-0.12402 -0.125574,-0.44958 v -0.94258 h -0.209289 v -0.22169 h 0.209289 v -0.49299 z"
           style="font-size:3.17499995px;fill:#ffffff;stroke-width:0.26458332"
           id="path4695"
           inkscape:connector-curvature="0" />
      </g>
    </g>
  </g>
</svg>
